<?xml version="1.0" encoding="UTF-8" standalone="no"?>
<svg
   xmlns:dc="http://purl.org/dc/elements/1.1/"
   xmlns:cc="http://creativecommons.org/ns#"
   xmlns:rdf="http://www.w3.org/1999/02/22-rdf-syntax-ns#"
   xmlns:svg="http://www.w3.org/2000/svg"
   xmlns="http://www.w3.org/2000/svg"
   xmlns:sodipodi="http://sodipodi.sourceforge.net/DTD/sodipodi-0.dtd"
   xmlns:inkscape="http://www.inkscape.org/namespaces/inkscape"
   width="165.53392mm"
   height="54.490391mm"
   viewBox="0 0 165.53392 54.490391"
   version="1.1"
   id="svg1307"
   inkscape:version="1.0.2-2 (e86c870879, 2021-01-15)"
   sodipodi:docname="Google_2015.svg"
   inkscape:export-filename="C:\Users\tjdru\OneDrive\Pictures\Logos\Internet\googlelogo2015.png"
   inkscape:export-xdpi="153.44287"
   inkscape:export-ydpi="153.44287">
  <defs
     id="defs1301" />
  <sodipodi:namedview
     id="base"
     pagecolor="#ffffff"
     bordercolor="#666666"
     borderopacity="1.0"
     inkscape:pageopacity="0.0"
     inkscape:pageshadow="2"
     inkscape:zoom="1"
     inkscape:cx="239.0213"
     inkscape:cy="109.23972"
     inkscape:document-units="mm"
     inkscape:current-layer="layer1"
     showgrid="false"
     inkscape:window-width="1366"
     inkscape:window-height="705"
     inkscape:window-x="-8"
     inkscape:window-y="-8"
     inkscape:window-maximized="1"
     inkscape:document-rotation="0"
     inkscape:snap-global="true"
     inkscape:snap-bbox="false"
     inkscape:bbox-paths="false"
     inkscape:bbox-nodes="true"
     inkscape:snap-nodes="true" />
  <metadata
     id="metadata1304">
    <rdf:RDF>
      <cc:Work
         rdf:about="">
        <dc:format>image/svg+xml</dc:format>
        <dc:type
           rdf:resource="http://purl.org/dc/dcmitype/StillImage" />
        <dc:title />
      </cc:Work>
    </rdf:RDF>
  </metadata>
  <g
     inkscape:label="Layer 1"
     inkscape:groupmode="layer"
     id="layer1"
     transform="translate(-23.65337,-148.53298)">
    <g
       id="g1891">
      <path
         fill="#ea4335"
         d="m 94.492112,177.20858 c 0,7.83959 -6.132932,13.61646 -13.659433,13.61646 -7.526502,0 -13.659434,-5.77687 -13.659434,-13.61646 0,-7.89485 6.132932,-13.61646 13.659434,-13.61646 7.526501,0 13.659433,5.72161 13.659433,13.61646 z m -5.979455,0 c 0,-4.89898 -3.554522,-8.25091 -7.679978,-8.25091 -4.125456,0 -7.679978,3.35193 -7.679978,8.25091 0,4.84986 3.554522,8.25091 7.679978,8.25091 4.125456,0 7.679978,-3.40718 7.679978,-8.25091 z"
         id="path1837"
         style="fill:#ea4335;fill-opacity:1;stroke:none;stroke-width:0.613907"
         sodipodi:nodetypes="cccccccccc" />
      <path
         fill="#fbbc05"
         d="m 123.95965,177.20858 c 0,7.83959 -6.13293,13.61646 -13.65943,13.61646 -7.5265,0 -13.659433,-5.77687 -13.659433,-13.61646 0,-7.88871 6.132933,-13.61646 13.659433,-13.61646 7.5265,0 13.65943,5.72161 13.65943,13.61646 z m -5.97945,0 c 0,-4.89898 -3.55452,-8.25091 -7.67998,-8.25091 -4.12546,0 -7.67998,3.35193 -7.67998,8.25091 0,4.84986 3.55452,8.25091 7.67998,8.25091 4.12546,0 7.67998,-3.40718 7.67998,-8.25091 z"
         id="path1839"
         style="fill:#fbbc05;fill-opacity:1;stroke:none;stroke-width:0.613907"
         sodipodi:nodetypes="cccccccccc" />
      <path
         fill="#4285f4"
         d="m 152.19938,188.86054 c 0,10.05579 -5.93034,14.16283 -12.94116,14.16283 -6.5995,0 -10.57148,-4.41399 -12.06941,-8.02376 l 5.20593,-2.1671 c 0.927,2.21621 3.19845,4.83145 6.85734,4.83145 4.48766,0 7.26866,-2.76872 7.26866,-7.98079 v -1.95836 h -0.20873 c -1.33832,1.65141 -3.91673,3.09409 -7.17043,3.09409 -6.80823,0 -13.04553,-5.93034 -13.04553,-13.56121 0,-7.68612 6.2373,-13.66557 13.04553,-13.66557 3.24757,0 5.82598,1.44268 7.17043,3.04498 h 0.20873 v -2.21621 h 5.67864 z m -5.25504,-11.60285 c 0,-4.79461 -3.19846,-8.30002 -7.26866,-8.30002 -4.12546,0 -7.58176,3.50541 -7.58176,8.30002 0,4.7455 3.4563,8.2018 7.58176,8.2018 4.0702,0 7.26866,-3.4563 7.26866,-8.2018 z"
         id="path1841"
         style="fill:#4285f4;fill-opacity:1;stroke:none;stroke-width:0.613907"
         sodipodi:nodetypes="ccccccccccccccccccccc" />
      <path
         fill="#34a853"
         d="m 161.56147,150.08616 v 39.90396 h -5.83212 v -39.90396 z"
         id="path1843"
         style="fill:#34a853;fill-opacity:1;stroke:none;stroke-width:0.613907"
         sodipodi:nodetypes="ccccc" />
      <path
         fill="#ea4335"
         d="m 184.28831,181.6901 4.64113,3.09409 c -1.49793,2.21621 -5.1077,6.03471 -11.345,6.03471 -7.73523,0 -13.51209,-5.97946 -13.51209,-13.61646 0,-8.09744 5.82597,-13.61646 12.84293,-13.61646 7.06607,0 10.52237,5.62339 11.65196,8.66223 l 0.62005,1.54704 -18.20235,7.53878 c 1.39357,2.73189 3.56066,4.12546 6.5995,4.12546 3.04498,0 5.15682,-1.49793 6.70387,-3.76939 z m -14.28562,-4.89898 12.16764,-5.05245 c -0.66916,-1.70053 -2.68278,-2.88537 -5.05246,-2.88537 -3.03884,0 -7.26866,2.68278 -7.11518,7.93782 z"
         id="path1845"
         style="fill:#ea4335;fill-opacity:1;stroke:none;stroke-width:0.613907"
         sodipodi:nodetypes="cccccccccccccc" />
      <path
         fill="#4285f4"
         d="m 45.097145,173.66633 v -5.77686 H 64.56414 c 0.190311,1.00681 0.288536,2.19779 0.288536,3.48699 0,4.33418 -1.223538,9.65528 -5.003343,13.5121 -3.753221,3.82969 -8.45964,5.93034 -14.746049,5.93034 -11.651957,0 -21.449914,-9.49101 -21.449914,-21.14296 0,-11.65196 9.797957,-21.14296 21.449914,-21.14296 6.446025,0 11.03805,2.52929 14.488208,5.82597 l -4.076343,4.07635 c -2.474046,-2.32057 -5.825978,-4.12546 -10.418004,-4.12546 -8.508752,0 -15.163506,6.85734 -15.163506,15.3661 0,8.50875 6.654754,15.36609 15.163506,15.36609 5.519025,0 8.66223,-2.2162 10.675845,-4.22982 1.632993,-1.63299 2.70733,-3.96584 3.130926,-7.15202 z"
         id="path1847"
         style="fill:#4285f4;fill-opacity:1;stroke:none;stroke-width:0.613907"
         sodipodi:nodetypes="cccccccccccccccc" />
    </g>
  </g>
</svg>
